<svg xmlns="http://www.w3.org/2000/svg" viewBox="0 0 512 512" width="512" height="512" role="img" aria-label="Mailgi">
  <title>Mailgi</title>
  <!-- Generated by genlogo.py from the same geometry as logo.png. Joins overlap
       by 8px: abutting edges leave an antialiasing hairline. -->
  <rect width="512" height="512" rx="112" fill="#16211f"/>
  <mask id="mailgi-m" maskUnits="userSpaceOnUse" x="0" y="0" width="512" height="512">
    <g transform="translate(256.0,256.0) scale(1.33333) translate(-262.000,-253.000) matrix(1 0 -0.16 1 55.040 0)">
      <g fill="#fff"><path d="M159.0,208 A57.0,57.0 0 0 1 273.0,208 Z"/><path d="M239.0,208 A57.0,57.0 0 0 1 353.0,208 Z"/><rect x="159.0" y="200" width="34.0" height="144"/><rect x="239.0" y="200" width="34.0" height="144"/><rect x="319.0" y="200" width="34.0" height="144"/></g>
      <g fill="#000"><path d="M193.0,355 L193.0,208 A23.0,23.0 0 0 1 239.0,208 L239.0,355 Z"/><path d="M273.0,355 L273.0,208 A23.0,23.0 0 0 1 319.0,208 L319.0,355 Z"/></g>
      <g fill="#fff"><rect x="149" y="333" width="54" height="22"/><rect x="229" y="333" width="54" height="22"/><rect x="309" y="333" width="54" height="22"/></g>
    </g>
  </mask>
  <rect width="512" height="512" fill="#fbfbfa" mask="url(#mailgi-m)"/>
</svg>
